<svg width="143" height="119" viewBox="0 0 143 119" fill="none" xmlns="http://www.w3.org/2000/svg">
<path d="M142.072 85.4411C139.711 82.1778 136.953 79.2236 133.864 76.6471C131.374 74.5821 128.704 72.7481 125.886 71.1674L124.68 70.5203C124.264 70.3301 123.896 70.0481 123.603 69.6953C123.311 69.3424 123.101 68.9278 122.99 68.4823C117.247 48.6677 111.482 28.8607 105.696 9.06137C105.632 8.84483 105.604 8.62065 105.534 8.4143C105.088 7.08449 104.186 6.66415 103 7.45388C101.797 8.23019 100.685 9.13937 99.6836 10.1644C96.2709 13.731 94.0363 18.0159 92.4376 22.66C90.3018 28.904 89.5696 35.334 89.8103 41.9091C89.8233 42.2931 89.8149 42.6775 89.785 43.0606C89.785 43.1497 89.6684 43.2211 89.5316 43.4096C89.3221 43.2779 89.1246 43.1279 88.9413 42.9612C79.1888 31.1492 69.4313 19.3372 59.6687 7.52522C57.918 5.39549 56.1673 3.26576 54.3989 1.15641C53.0409 -0.45362 51.9059 -0.3721 50.7531 1.36276C48.8048 4.33062 47.7432 7.60419 47.2999 11.0994C46.4537 17.6745 47.685 23.9797 49.8208 30.1421C52.894 38.9998 57.6545 46.9048 63.3803 54.2518C65.1411 56.5166 67.0438 58.6642 68.8857 60.855C69.3038 61.3492 69.7421 61.8256 70.3501 62.5084C69.0453 62.7631 67.9812 62.9746 66.9197 63.1554C56.0799 64.9833 45.5696 68.4173 35.7317 73.3455C34.7487 73.8397 34.0697 73.8856 33.079 73.2105C23.3603 66.5742 13.2464 60.5544 2.90193 54.9397C2.62405 54.7683 2.32275 54.6387 2.00758 54.555C1.01696 54.3665 0.381043 55.0849 0.740807 56.0173C0.958826 56.6408 1.24339 57.2387 1.58954 57.8005C5.32399 63.828 9.93253 69.03 15.856 72.9634C18.957 75.0294 22.2785 76.5579 25.9699 77.177C26.3449 77.2407 26.7021 77.3757 27.1936 77.5082C27.0245 77.6878 26.8387 77.8507 26.6388 77.9947C21.1815 81.1384 16.9733 85.6118 13.4339 90.7502C8.22744 98.3036 4.80462 106.606 3.59105 115.759C3.46373 116.408 3.45771 117.075 3.57332 117.726C3.86721 118.928 4.96677 119.163 5.82311 118.274C6.07815 117.984 6.31426 117.677 6.52997 117.356C15.9446 104.441 25.3543 91.5178 34.7588 78.5883C35.5999 77.4292 36.5196 77.0343 37.8143 77.1668C39.4408 77.3298 41.0572 77.5005 42.8256 77.6763C42.6027 78.4049 42.4684 78.9246 42.291 79.429C40.0919 85.543 40.1375 91.6571 42.1466 97.789C42.4589 98.7294 42.854 99.6399 43.3273 100.51C43.6446 101.083 44.0758 101.585 44.594 101.985C45.3364 102.558 45.9976 102.433 46.6209 101.73C46.8595 101.425 47.0828 101.108 47.2897 100.78C50.3097 96.3641 53.3323 91.9535 56.3573 87.5479C56.6715 87.1072 57.0008 86.6767 57.4493 86.0729C57.6368 86.5824 57.7786 86.9085 57.8774 87.2601C58.9135 90.8771 60.5962 94.2741 62.8432 97.2846C64.4165 99.4041 66.4991 100.933 68.8376 102.099C70.1601 102.754 71.5282 103.34 72.8913 103.895C73.4036 104.092 73.9425 104.211 74.4899 104.247C75.5895 104.344 76.0101 103.977 76.0101 102.836C76.0101 101.506 75.9315 100.186 75.858 98.8564C75.592 94.2836 75.3133 89.7031 75.0549 85.1303C75.0296 84.6998 75.0549 84.2693 75.0549 83.6834C75.5895 83.7827 76.0101 83.8286 76.4129 83.9381C82.3617 85.6704 88.3029 87.4409 94.2618 89.1376C99.5316 90.6508 104.811 92.1437 110.132 93.4939C113.605 94.3651 117.135 94.5001 120.753 94.1409C126.461 93.5754 131.867 91.9577 137.221 90.0445C137.451 89.9732 137.684 89.8815 137.917 89.7898C138.997 89.3949 140.043 88.8828 141.15 88.5593C142.561 88.1441 143.068 86.8244 142.072 85.4411ZM22.9955 73.9773C17.3406 71.8832 12.8208 68.1995 8.8735 63.7363C7.66753 62.3708 6.57557 60.8881 5.21759 59.2093C8.0957 60.1162 30.0286 73.3939 31.2524 74.9275C30.6975 75.0014 30.2389 75.0906 29.7601 75.1186C27.4514 75.2095 25.1488 74.8219 22.9955 73.9798V73.9773ZM6.46916 112.954C6.44718 112.848 6.4412 112.739 6.45143 112.631C8.68602 102.497 13.178 93.5499 20.3074 85.9863C22.9246 83.2019 25.899 80.8658 29.3851 79.2405C30.0996 78.8991 30.8673 78.6571 31.7869 78.2979C30.9559 80.1423 7.38124 112.346 6.46916 112.957V112.954ZM135.541 81.6683C134.781 81.4899 134.165 81.067 133.479 80.825C131.87 80.2493 130.808 79.2965 130.692 77.1413C132.577 78.5883 134.201 79.9538 135.541 81.6683ZM128.789 79.243C128.86 80.3665 128.171 81.1027 127.028 81.1282C125.956 81.1664 124.973 80.4021 124.91 79.485C124.898 78.9876 125.082 78.5054 125.421 78.1437C125.761 77.782 126.23 77.57 126.724 77.554H126.76C127.841 77.554 128.736 78.2903 128.789 79.243ZM124.796 73.2054C126.179 74.0053 127.208 74.7339 127.636 75.2638C127.261 75.3453 126.876 75.3988 126.483 75.4625C125.821 75.5477 125.172 75.719 124.553 75.972C124.241 76.1188 123.902 76.1986 123.557 76.2065C123.212 76.2144 122.87 76.1502 122.551 76.0179C120.327 75.2536 118.102 74.4639 115.853 73.7811C114.558 73.3939 113.512 72.8717 112.698 71.6794C111.637 70.0974 110.297 68.6963 108.865 66.9538C113.218 67.7639 120.631 70.8209 124.796 73.2054ZM93.2053 28.7053C94.3403 23.2434 96.3494 18.1331 99.7444 13.6596C100.758 12.312 101.862 11.0102 103.524 9.95046C109.205 29.4696 114.824 48.7645 120.514 68.2887C119.891 68.09 119.577 68.0186 119.291 67.8938C115.448 66.2673 111.473 64.9743 107.411 64.0292C106.558 63.8341 105.801 63.3413 105.275 62.6383C102.131 58.817 99.0046 54.9575 95.7692 51.2025C94.409 49.6091 93.4775 47.6918 93.0634 45.6336C91.8296 39.9959 92.0348 34.3277 93.2053 28.7053ZM56.9628 40.3373C52.97 33.0794 49.9854 25.4751 49.423 17.081C49.1266 12.6534 49.7169 8.37863 51.726 4.37138C51.9793 3.86188 52.3087 3.37276 52.6913 2.74607C71.747 25.7858 90.7106 48.7135 109.582 71.5291L109.448 71.8705C109.027 71.8068 108.599 71.7711 108.181 71.6896C106.359 71.3024 104.545 70.8719 102.714 70.5127C95.2208 69.0845 87.6333 68.2142 80.0131 67.9091C79.4826 67.8712 78.9782 67.6631 78.574 67.3155C70.0056 59.4259 62.6076 50.5783 56.9628 40.3373ZM57.1402 67.7359C61.7234 66.6939 66.342 65.7947 70.9531 64.8801C71.5155 64.7706 72.2832 64.7273 72.6759 65.0228C73.7237 65.8292 74.6608 66.7715 75.4628 67.825C66.7423 67.8607 58.4247 68.5893 50.1983 70.2503C50.1704 70.0974 50.1349 69.9446 50.0994 69.7917C52.443 69.1013 54.7561 68.2734 57.1402 67.7359ZM41.8021 74.9122C42.7851 74.6167 43.6161 74.3645 44.589 74.0767C43.9454 75.6612 43.9201 75.6612 41.8021 74.9122ZM45.2046 99.669C44.8043 98.6628 44.5003 98.0259 44.2849 97.361C42.1593 90.768 42.5976 84.282 45.3389 77.9769C45.9824 76.4841 47.0643 75.1746 48.0017 73.8346C48.4577 73.1799 49.1367 72.864 49.95 72.7316C52.9776 72.245 55.9975 71.6438 59.0353 71.1852C60.9101 70.8973 62.8229 70.8082 64.7155 70.6273C64.7712 70.7547 64.8143 70.8821 64.8599 70.9967C58.3639 80.4658 51.878 89.9273 45.2046 99.669V99.669ZM73.1776 101.646C69.7193 100.372 66.5751 98.6016 64.4039 95.4937C62.377 92.592 60.786 89.456 59.9828 85.9532C59.3216 83.0796 59.3038 83.0872 61.0621 80.7155C61.1871 80.6099 61.322 80.5169 61.4649 80.4378C64.7155 81.174 68.075 81.9663 71.4522 82.6745C72.4074 82.8809 72.6582 83.3573 72.6936 84.2642C72.8558 87.8485 73.0965 91.4329 73.2916 95.0071C73.4081 97.2005 73.5171 99.3914 73.6235 101.557C73.3955 101.61 73.2561 101.674 73.1776 101.646ZM114.958 91.9169C110.145 91.4074 105.526 89.9604 100.89 88.6306C94.0895 86.6716 87.3553 84.5062 80.5375 82.6287C74.7306 81.011 68.835 79.7016 62.7697 78.2087C64.4748 75.702 66.1014 73.2869 67.7811 70.9152C67.9863 70.6171 68.5133 70.4464 68.906 70.4057C70.4261 70.2885 71.9716 70.1917 73.5069 70.1815C79.2161 70.1466 84.9226 70.4409 90.5983 71.0629C96.9792 71.7372 103.304 72.8661 109.526 74.4409C109.864 74.5492 110.191 74.69 110.502 74.8613C109.187 81.625 110.902 87.2932 116.228 92.001C115.584 91.9653 115.273 91.9653 114.958 91.9169ZM138.249 87.3314C137.659 87.5454 137.079 87.7619 136.476 87.9581C132.355 89.3821 128.144 90.5285 123.871 91.3896C120.806 92.0112 118.386 90.9234 116.304 88.8039C113.481 85.9456 112.293 82.4172 112.399 78.4456C112.435 77.4394 112.346 76.3439 113.106 75.3198C116.223 76.3389 119.317 77.3579 122.389 78.3769C122.425 78.7972 122.46 79.0137 122.46 79.2277C122.478 81.7269 124.791 83.5305 127.086 83.4159C127.798 83.3804 128.486 83.1534 129.08 82.7586C130.312 81.9408 131.135 82.1472 132.171 82.7586C132.787 83.1178 133.438 83.4159 134.046 83.7776C135.69 84.738 137.325 85.7265 139.128 86.8041C138.847 86.9952 138.555 87.1704 138.254 87.3289L138.249 87.3314Z" fill="#4360E6"/>
</svg>
